HIERARCHY
ROOT Hips
{
	OFFSET 0.000000 0.000000 0.000000
	CHANNELS 6 Xposition Yposition Zposition Yrotation Xrotation Zrotation
	JOINT Chest
	{
		OFFSET 0.000000 -0.009281 11.569106
		CHANNELS 3 Yrotation Xrotation Zrotation
		JOINT Chest2
		{
			OFFSET -0.000000 0.016865 9.269641
			CHANNELS 3 Yrotation Xrotation Zrotation
			JOINT Chest3
			{
				OFFSET -0.000000 0.000001 8.374491
				CHANNELS 3 Yrotation Xrotation Zrotation
				JOINT Chest4
				{
					OFFSET -0.000000 0.000001 8.374493
					CHANNELS 3 Yrotation Xrotation Zrotation
					JOINT Neck
					{
						OFFSET -0.000000 0.000002 12.152554
						CHANNELS 3 Yrotation Xrotation Zrotation
						JOINT Head
						{
							OFFSET -0.000000 0.040101 7.802319
							CHANNELS 3 Yrotation Xrotation Zrotation
							End Site
							{
								OFFSET -0.000000 0.020947 14.853096
							}
						}
					}
					JOINT RightCollar
					{
						OFFSET 2.894404 0.000001 6.791374
						CHANNELS 3 Yrotation Xrotation Zrotation
						JOINT RightShoulder
						{
							OFFSET 13.574684 0.000001 0.000000
							CHANNELS 3 Yrotation Xrotation Zrotation
							JOINT RightElbow
							{
								OFFSET 23.923903 0.000002 0.000000
								CHANNELS 3 Yrotation Xrotation Zrotation
								JOINT RightWrist
								{
									OFFSET 19.846718 0.012767 0.000000
									CHANNELS 3 Yrotation Xrotation Zrotation
									End Site
									{
										OFFSET 14.973145 0.000001 0.000000
									}
								}
							}
						}
					}
					JOINT LeftCollar
					{
						OFFSET -2.894404 0.000001 6.791374
						CHANNELS 3 Yrotation Xrotation Zrotation
						JOINT LeftShoulder
						{
							OFFSET -13.574684 -0.000001 0.000000
							CHANNELS 3 Yrotation Xrotation Zrotation
							JOINT LeftElbow
							{
								OFFSET -23.923903 -0.000002 0.000000
								CHANNELS 3 Yrotation Xrotation Zrotation
								JOINT LeftWrist
								{
									OFFSET -19.846718 0.012763 0.000000
									CHANNELS 3 Yrotation Xrotation Zrotation
									End Site
									{
										OFFSET -14.973145 -0.000001 0.000000
									}
								}
							}
						}
					}
				}
			}
		}
	}
	JOINT RightHip
	{
		OFFSET 9.469263 0.004643 0.045487
		CHANNELS 3 Yrotation Xrotation Zrotation
		JOINT RightKnee
		{
			OFFSET 0.000000 0.002661 -40.478676
			CHANNELS 3 Yrotation Xrotation Zrotation
			JOINT RightAnkle
			{
				OFFSET 0.000000 0.049106 -35.224068
				CHANNELS 3 Yrotation Xrotation Zrotation
				JOINT RightToe
				{
					OFFSET -0.000001 12.539529 -6.151390
					CHANNELS 3 Yrotation Xrotation Zrotation
					End Site
					{
						OFFSET -0.000001 5.044994 -1.291870
					}
				}
			}
		}
	}
	JOINT LeftHip
	{
		OFFSET -9.469263 0.004641 0.045487
		CHANNELS 3 Yrotation Xrotation Zrotation
		JOINT LeftKnee
		{
			OFFSET 0.000000 0.002661 -40.478676
			CHANNELS 3 Yrotation Xrotation Zrotation
			JOINT LeftAnkle
			{
				OFFSET 0.000000 0.049106 -35.224068
				CHANNELS 3 Yrotation Xrotation Zrotation
				JOINT LeftToe
				{
					OFFSET -0.000001 12.539529 -6.151390
					CHANNELS 3 Yrotation Xrotation Zrotation
					End Site
					{
						OFFSET -0.000001 5.044994 -1.291870
					}
				}
			}
		}
	}
}
MOTION
Frames: 16
Frame Time: 0.016667
10.291050 6.476480 83.302856 -8.040003 1.059939 -99.616923 6.339514 -3.748698 0.505903 2.831849 -1.654358 0.224978 2.831846 -1.654359 0.224977 2.124347 -1.239759 0.176393 -7.987735 -22.488791 19.805225 -9.138387 -5.664980 33.550480 5.826609 -1.695184 3.771959 54.865352 18.894588 48.694362 -8.152983 -8.355321 123.670424 -57.579444 10.957301 39.433414 -10.870467 -3.065591 -7.375097 -58.601254 -6.820439 -54.390712 -37.578400 -25.467731 -89.749512 52.833555 23.882653 -4.609666 -3.971090 -10.769577 -5.396508 1.697157 -2.508350 -2.852097 -0.205823 5.414646 -4.572354 0.019312 0.058686 -0.015171 -4.155938 -9.047490 -1.231098 0.573519 -1.827483 0.657653 -1.825223 1.735792 -2.750379 0.048343 -0.072403 0.029656 
10.300083 6.504442 83.298866 -8.034605 1.030089 -99.684637 6.399570 -3.739074 0.404759 2.857372 -1.651075 0.181419 2.857372 -1.651076 0.181416 2.143372 -1.237490 0.143777 -8.025121 -22.536141 19.851926 -9.202987 -5.747744 33.623187 5.745959 -1.850143 3.874759 54.941762 18.758124 48.380562 -8.181093 -8.454677 123.673252 -57.640164 11.143991 39.560073 -10.942360 -3.147199 -7.273586 -58.260906 -7.324965 -54.698228 -37.035147 -26.542638 -90.012918 52.662866 23.817119 -5.399788 -3.981176 -10.751099 -5.383863 1.704891 -2.523035 -2.803017 -0.194617 5.409682 -4.564638 0.018049 0.055739 -0.015470 -4.153305 -9.060091 -1.221027 0.566105 -1.823646 0.683004 -1.791549 1.758107 -2.749249 0.033313 -0.079369 0.028825 
10.312783 6.527473 83.294868 -8.027698 1.001430 -99.739313 6.462626 -3.736540 0.301835 2.883729 -1.650448 0.137681 2.883727 -1.650449 0.137681 2.163018 -1.237219 0.111045 -8.061443 -22.577639 19.897070 -9.264919 -5.819930 33.693535 5.667090 -1.966561 3.968713 54.978132 18.598663 48.053926 -8.180252 -8.566142 123.663717 -57.714846 11.371893 39.694208 -11.019582 -3.199974 -7.171528 -57.906515 -7.800413 -54.942813 -36.510438 -27.632488 -90.225050 52.548767 23.726032 -6.333926 -3.986967 -10.742192 -5.401400 1.709131 -2.526729 -2.754289 -0.178798 5.402892 -4.522857 0.015487 0.053971 -0.015910 -4.153406 -9.070983 -1.194404 0.558343 -1.821484 0.702730 -1.753329 1.784768 -2.708805 0.020583 -0.086508 0.029936 
10.326407 6.552763 83.291069 -8.018123 0.976447 -99.784105 6.519677 -3.731648 0.206727 2.907833 -1.649432 0.096831 2.907835 -1.649431 0.096829 2.180985 -1.236646 0.080468 -8.088433 -22.620007 19.935350 -9.312166 -5.894965 33.754143 5.590832 -2.085186 4.024034 54.999999 18.426288 47.770975 -8.159841 -8.683468 123.639347 -57.822093 11.628588 39.793584 -11.083952 -3.263280 -7.088389 -57.555853 -8.214756 -55.123090 -35.980152 -28.744527 -90.436575 52.445232 23.497968 -7.468056 -3.997573 -10.728777 -5.412991 1.716903 -2.537143 -2.711905 -0.163603 5.400660 -4.473882 0.013775 0.052591 -0.016177 -4.148990 -9.080470 -1.147762 0.551736 -1.819161 0.709644 -1.720749 1.810719 -2.728352 0.009832 -0.091469 0.029204 
10.339324 6.576216 83.287956 -8.007172 0.952168 -99.826008 6.579585 -3.726660 0.114985 2.932514 -1.648740 0.056673 2.932516 -1.648740 0.056673 2.199386 -1.236317 0.050417 -8.111845 -22.661880 19.967141 -9.354560 -5.969257 33.804071 5.524554 -2.202432 4.076883 54.996318 18.271222 47.506776 -8.128897 -8.792499 123.621124 -57.907539 11.892051 39.897512 -11.154501 -3.331763 -7.008077 -57.216928 -8.558331 -55.258880 -35.444112 -29.804435 -90.548337 52.157585 23.180243 -8.832656 -3.996055 -10.710105 -5.378423 1.713625 -2.553995 -2.707743 -0.149622 5.400264 -4.489600 0.013690 0.053696 -0.016290 -4.148806 -9.085798 -1.100411 0.545878 -1.818388 0.708458 -1.689431 1.834292 -2.734215 0.005198 -0.093935 0.030137 
10.351187 6.594967 83.285156 -7.994174 0.932379 -99.865555 6.639571 -3.711637 0.028247 2.956941 -1.643440 0.019167 2.956940 -1.643439 0.019169 2.217607 -1.232521 0.022331 -8.129948 -22.716173 19.990987 -9.391991 -6.066578 33.840913 5.464973 -2.310573 4.114716 54.992599 18.124359 47.239747 -8.108961 -8.903497 123.623583 -57.964974 12.131802 40.020390 -11.228108 -3.427811 -6.934096 -56.929589 -8.826240 -55.362891 -34.861788 -30.829049 -90.554587 51.868901 22.945278 -10.243932 -3.996327 -10.689429 -5.319096 1.704765 -2.567451 -2.727990 -0.133481 5.398706 -4.475594 0.015880 0.053471 -0.013857 -4.141400 -9.093194 -1.064249 0.533031 -1.807975 0.703387 -1.663928 1.854030 -2.727733 0.003255 -0.096287 0.029588 
10.363320 6.611749 83.282272 -7.980644 0.915825 -99.897534 6.692700 -3.693950 -0.051784 2.978725 -1.636604 -0.015450 2.978727 -1.636604 -0.015451 2.233849 -1.227563 -0.003608 -8.138600 -22.775636 20.005344 -9.416032 -6.174436 33.863204 5.417883 -2.424998 4.154368 55.023830 18.029012 46.993563 -8.096903 -9.052635 123.644661 -58.000566 12.361348 40.174582 -11.297223 -3.498547 -6.883787 -56.677135 -9.038392 -55.396126 -34.207493 -31.761121 -90.499522 51.620364 22.770848 -11.588293 -3.997254 -10.673263 -5.280447 1.703776 -2.575301 -2.734550 -0.126935 5.397442 -4.459649 0.017986 0.052061 -0.013988 -4.136763 -9.096530 -1.059546 0.517073 -1.802361 0.717426 -1.635110 1.875467 -2.706473 0.001618 -0.098059 0.029761 
10.373914 6.630684 83.279045 -7.966622 0.898573 -99.926480 6.750987 -3.677919 -0.138874 3.003499 -1.631101 -0.053153 3.003499 -1.631101 -0.053153 2.252332 -1.223622 -0.031847 -8.158557 -22.838507 20.021636 -9.460303 -6.286340 33.885805 5.363036 -2.526756 4.206288 55.041984 17.938676 46.767279 -8.101854 -9.202132 123.657693 -58.036063 12.649092 40.344343 -11.380557 -3.537926 -6.815929 -56.452668 -9.266571 -55.355582 -33.496597 -32.633431 -90.445222 51.477148 22.454776 -13.047318 -4.000663 -10.654441 -5.245956 1.706437 -2.586345 -2.733493 -0.121812 5.395800 -4.469770 0.020269 0.050665 -0.013817 -4.131433 -9.098868 -1.074691 0.507640 -1.798154 0.741509 -1.610328 1.898703 -2.708923 -0.001472 -0.100897 0.028028 
10.383904 6.646895 83.275589 -7.951173 0.878123 -99.958685 6.808274 -3.666741 -0.218212 3.027660 -1.627388 -0.087872 3.027659 -1.627387 -0.087873 2.270357 -1.221013 -0.057836 -8.180682 -22.896182 20.034215 -9.508235 -6.388018 33.901258 5.323031 -2.617931 4.241021 55.001444 17.828759 46.549095 -8.100682 -9.303757 123.659783 -58.057011 12.957416 40.541380 -11.447303 -3.584392 -6.747573 -56.278122 -9.475175 -55.248441 -32.807844 -33.521872 -90.334361 51.435522 22.113081 -14.718084 -4.000133 -10.631590 -5.195272 1.708169 -2.601249 -2.735900 -0.117427 5.395015 -4.468387 0.022180 0.049553 -0.013735 -4.129540 -9.101791 -1.086070 0.501136 -1.788136 0.757779 -1.580790 1.923613 -2.657158 -0.005386 -0.106627 0.027766 
10.394515 6.664458 83.272598 -7.937659 0.854839 -99.997945 6.863226 -3.657790 -0.290543 3.051322 -1.624512 -0.118953 3.051324 -1.624513 -0.118951 2.288022 -1.219014 -0.081098 -8.200447 -22.950544 20.046042 -9.551497 -6.484057 33.916103 5.293931 -2.685322 4.274485 54.917009 17.698419 46.311428 -8.122977 -9.356554 123.670356 -58.108470 13.263181 40.741576 -11.518500 -3.620203 -6.663865 -56.151118 -9.671141 -55.060983 -32.238756 -34.404319 -90.083140 51.224459 21.995996 -16.542624 -3.996764 -10.616146 -5.142527 1.710825 -2.604214 -2.732139 -0.114731 5.386897 -4.493275 0.022918 0.049018 -0.013907 -4.118140 -9.112063 -1.070641 0.490268 -1.772734 0.751089 -1.551179 1.947740 -2.637248 -0.010691 -0.110657 0.026727 
10.405419 6.677153 83.270134 -7.930402 0.828798 -100.045988 6.911269 -3.653925 -0.346138 3.071245 -1.623673 -0.142964 3.071247 -1.623673 -0.142963 2.302903 -1.218509 -0.099057 -8.208163 -22.996122 20.051806 -9.573100 -6.566052 33.923589 5.275061 -2.736983 4.292290 54.844592 17.578868 46.071156 -8.124829 -9.435505 123.694097 -58.187427 13.587006 40.937360 -11.598411 -3.656348 -6.598253 -56.079224 -9.835211 -54.814355 -31.822220 -35.327070 -89.675869 50.803005 22.021657 -18.437507 -3.993322 -10.604128 -5.094985 1.710035 -2.611861 -2.721041 -0.107065 5.380096 -4.480772 0.022019 0.049039 -0.014811 -4.108886 -9.129852 -1.031238 0.478321 -1.754765 0.748710 -1.519488 1.972627 -2.606941 -0.014208 -0.114520 0.028075 
10.417204 6.691108 83.267471 -7.929109 0.803604 -100.097098 6.949411 -3.654872 -0.392137 3.087169 -1.624715 -0.162305 3.087170 -1.624715 -0.162304 2.314791 -1.219393 -0.113514 -8.201183 -23.033843 20.051931 -9.568463 -6.636240 33.925112 5.270058 -2.800738 4.304155 54.822722 17.487485 45.863368 -8.112809 -9.584973 123.734723 -58.304161 13.897739 41.090855 -11.668115 -3.714070 -6.548252 -56.053245 -9.936869 -54.555590 -31.435351 -36.239037 -89.187408 50.371283 21.808628 -20.328456 -3.986057 -10.598558 -5.050271 1.703798 -2.618931 -2.712819 -0.097568 5.375784 -4.487148 0.019566 0.047573 -0.015730 -4.099939 -9.153994 -0.986707 0.471711 -1.740020 0.754008 -1.490981 2.000964 -2.609188 -0.020539 -0.117029 0.027700 
10.428247 6.700894 83.264084 -7.926423 0.778696 -100.145825 6.985416 -3.656974 -0.432346 3.101939 -1.626106 -0.178845 3.101940 -1.626106 -0.178844 2.325823 -1.220524 -0.125874 -8.188878 -23.066701 20.045697 -9.554912 -6.698107 33.916739 5.270252 -2.859532 4.316069 54.815912 17.417367 45.680534 -8.055306 -9.799561 123.777357 -58.335000 14.206418 41.245928 -11.728820 -3.760250 -6.505840 -56.012845 -10.025107 -54.291217 -30.817411 -37.046123 -88.807930 50.238989 21.212027 -22.075947 -3.980944 -10.590765 -5.020064 1.698109 -2.628437 -2.696777 -0.086493 5.372737 -4.462242 0.017737 0.045721 -0.015894 -4.095250 -9.171935 -0.961335 0.466432 -1.733241 0.759196 -1.453349 2.035568 -2.571411 -0.030616 -0.120404 0.027781 
10.439245 6.716504 83.260178 -7.922066 0.755844 -100.194094 7.021049 -3.668557 -0.476778 3.117442 -1.631846 -0.196534 3.117443 -1.631847 -0.196534 2.337398 -1.224925 -0.139070 -8.185470 -23.091162 20.042458 -9.554649 -6.743118 33.911438 5.258252 -2.906253 4.319287 54.797371 17.316529 45.550982 -7.984401 -9.997033 123.794925 -58.328893 14.515757 41.372245 -11.784854 -3.745102 -6.445561 -55.882238 -10.198257 -54.021889 -29.990865 -37.599621 -88.482833 50.211572 20.729867 -23.820211 -3.976051 -10.582575 -5.005396 1.695359 -2.636164 -2.677436 -0.078995 5.372739 -4.472427 0.015794 0.040522 -0.016740 -4.090158 -9.184569 -0.954659 0.461009 -1.734923 0.764212 -1.410960 2.073064 -2.558134 -0.043794 -0.121519 0.025667 
10.449593 6.727831 83.256737 -7.914748 0.732373 -100.239638 7.056371 -3.690836 -0.520072 3.132436 -1.642411 -0.213227 3.132435 -1.642411 -0.213227 2.348593 -1.232939 -0.151495 -8.188209 -23.107922 20.039848 -9.563513 -6.772892 33.905698 5.265877 -2.903724 4.329578 54.732505 17.187903 45.412999 -7.948971 -10.126529 123.802370 -58.311203 14.781694 41.516895 -11.813342 -3.708077 -6.396566 -55.678893 -10.446495 -53.716948 -29.072376 -38.067308 -88.217234 50.150787 20.517970 -25.593581 -3.971420 -10.571429 -5.007920 1.687279 -2.643356 -2.645611 -0.063705 5.369877 -4.448361 0.013504 0.036970 -0.015858 -4.085974 -9.189930 -0.965617 0.456909 -1.742983 0.776969 -1.367613 2.109512 -2.531388 -0.054377 -0.119928 0.025300 
10.460079 6.738256 83.254906 -7.913279 0.710803 -100.286643 7.086945 -3.713989 -0.556578 3.145680 -1.653537 -0.227144 3.145682 -1.653538 -0.227144 2.358485 -1.241361 -0.161838 -8.186024 -23.127372 20.032682 -9.565295 -6.808197 33.893082 5.273443 -2.927848 4.327552 54.687457 17.070188 45.287013 -7.965090 -10.211171 123.823653 -58.305165 15.045795 41.706429 -11.825633 -3.711313 -6.362593 -55.490660 -10.683021 -53.408142 -28.314095 -38.498587 -87.856887 49.847393 20.255030 -27.362832 -3.965888 -10.565046 -5.005080 1.678846 -2.652401 -2.613998 -0.049746 5.366813 -4.412927 0.009836 0.036085 -0.015401 -4.081639 -9.199351 -0.978994 0.452549 -1.753928 0.805584 -1.331302 2.140303 -2.499762 -0.060016 -0.112479 0.024869 
